<svg width="197" height="520" viewBox="0 0 197 520" fill="none" xmlns="http://www.w3.org/2000/svg">
<g opacity="0.8">
<path d="M67.4439 405.56L2.55968 470.444C0.755466 472.248 0.755465 475.173 2.55968 476.977L42.2162 516.634C44.0204 518.438 46.9456 518.438 48.7498 516.634L113.634 451.75C115.438 449.946 115.438 447.02 113.634 445.216L73.9775 405.56C72.1733 403.755 69.2481 403.755 67.4439 405.56ZM5.50327 473.504C5.51803 473.481 5.53552 473.458 5.5557 473.438L70.4378 408.556C70.4583 408.536 70.4806 408.518 70.5043 408.503L58.3053 461.305L5.50327 473.504ZM40.9408 509.369L8.61745 477.045L45.6525 468.485L40.9408 509.369ZM110.624 448.196C110.774 448.346 110.774 448.589 110.624 448.74L45.7396 513.624C45.5895 513.774 45.346 513.774 45.196 513.624L44.7571 513.185L50.1026 467.545L60.5409 465.138C60.5412 465.138 60.5416 465.138 60.5419 465.138C61.3371 464.958 61.9581 464.336 62.1383 463.541C62.1383 463.541 62.1383 463.541 62.1383 463.541L64.5449 453.103L110.185 447.757L110.624 448.196ZM106.371 443.943L65.4883 448.772L74.1799 411.752L106.371 443.943Z" fill="#ED1B24" stroke="#ED1B24"/>
<path d="M126.542 303.198L58.367 275.114C56.4211 274.312 54.1939 275.24 53.3924 277.186L36.2278 318.854C35.4262 320.8 36.3538 323.027 38.2997 323.828L106.475 351.912C108.421 352.714 110.648 351.786 111.449 349.841L128.614 308.173C129.416 306.227 128.488 304 126.542 303.198ZM57.2396 278.543L124.927 306.426L82.3747 313.625L57.2396 278.543ZM41.4821 315.55L55.3277 281.939L72.9348 306.509L41.4821 315.55ZM108.127 348.453C108.083 348.561 107.96 348.612 107.852 348.568L39.6774 320.484C39.57 320.44 39.5186 320.316 39.5629 320.209L39.7347 319.792L75.1285 309.689L80.098 316.632C80.0983 316.632 80.0986 316.632 80.0989 316.633C80.5001 317.197 81.1896 317.481 81.8718 317.363C81.8723 317.363 81.8728 317.363 81.8733 317.363L90.2911 315.935L108.299 348.036L108.127 348.453ZM110.045 343.798L94.0008 315.262L123.834 310.324L110.045 343.798Z" fill="#ED1B24" stroke="#ED1B24"/>
<path d="M159.462 166.65L110.83 215.282C109.429 216.683 109.429 218.955 110.83 220.356L140.553 250.079C141.955 251.481 144.226 251.481 145.628 250.079L194.26 201.447C195.661 200.046 195.661 197.774 194.26 196.373L164.536 166.65C163.135 165.248 160.863 165.248 159.462 166.65ZM113.509 217.447L161.627 169.328L152.597 208.416L113.509 217.447ZM139.591 244.273L115.707 220.389L143.073 214.064L139.591 244.273ZM191.827 198.784C191.89 198.847 191.89 198.95 191.827 199.014L143.194 247.646C143.131 247.71 143.028 247.71 142.964 247.646L142.678 247.36L146.667 213.3L154.404 211.516C154.405 211.516 154.405 211.516 154.406 211.515C155.048 211.369 155.55 210.868 155.696 210.226C155.696 210.225 155.696 210.225 155.696 210.224L157.48 202.487L191.54 198.497L191.827 198.784ZM188.457 195.414L158.248 198.982L164.67 171.627L188.457 195.414Z" fill="#ED1B24" stroke="#ED1B24"/>
<path d="M137.61 83.5H84.3896C82.7851 83.5 81.5 84.8223 81.5 86.4339V119.566C81.5 121.178 82.7851 122.5 84.3896 122.5H137.61C139.215 122.5 140.5 121.178 140.5 119.566V86.4339C140.5 84.8223 139.215 83.5 137.61 83.5ZM111 102.93L85.0381 86.4115H136.962L111 102.93ZM84.3766 115.563V89.3707L102.513 100.908L84.3766 115.563ZM137.623 119.553C137.623 119.559 137.622 119.562 137.621 119.565C137.62 119.568 137.618 119.57 137.616 119.572C137.614 119.574 137.613 119.575 137.612 119.576L137.612 119.576C137.612 119.576 137.612 119.576 137.61 119.576H84.3896C84.3883 119.576 84.388 119.576 84.3878 119.576C84.3876 119.575 84.3873 119.575 84.3868 119.575C84.386 119.575 84.3849 119.574 84.3837 119.572C84.3817 119.57 84.3799 119.568 84.3787 119.565C84.3776 119.562 84.3766 119.559 84.3766 119.553V119.283L105.091 102.608L110.229 105.88C110.23 105.88 110.23 105.881 110.231 105.881C110.7 106.182 111.3 106.182 111.769 105.881C111.77 105.881 111.77 105.88 111.771 105.88L116.909 102.608L137.623 119.283V119.553ZM137.623 89.4817V115.567L119.441 100.959L137.623 89.4817Z" fill="#ED1B24" stroke="#ED1B24"/>
<path d="M169.694 0.975606L131.582 11.1878C130.364 11.514 129.655 12.7731 129.981 13.991L136.3 37.5723C136.626 38.7902 137.87 39.5258 139.088 39.1996L177.2 28.9875C178.417 28.6613 179.127 27.4021 178.801 26.1842L172.482 2.60296C172.156 1.38509 170.912 0.64941 169.694 0.975606ZM154.337 19.8881L133.107 13.2725L169.416 3.54369L154.337 19.8881ZM137.776 33.8419L132.912 15.6909L147.7 20.2975L137.776 33.8419ZM176.459 26.683L138.577 36.8332L138.572 36.8136L150.135 21.0949L154.351 22.4108C154.351 22.4109 154.351 22.411 154.352 22.4111C154.793 22.5503 155.274 22.4215 155.587 22.0803C155.587 22.08 155.587 22.0798 155.587 22.0795L158.58 18.8319L176.453 26.6634L176.459 26.683ZM170.814 5.61872L175.658 23.6953L160.268 16.9695L170.814 5.61872Z" fill="#ED1B24" stroke="#ED1B24"/>
</g>
</svg>
