<svg width="436" height="493" viewBox="0 0 436 493" fill="none" xmlns="http://www.w3.org/2000/svg">
<path d="M432.624 379.418L297.325 343.164C295.725 342.736 294.079 343.684 293.649 345.287L265.164 451.593C264.735 453.196 265.687 454.84 267.287 455.269L402.585 491.522C404.185 491.951 405.832 491.003 406.261 489.4L434.746 383.093C435.175 381.49 434.224 379.846 432.624 379.418ZM401.24 484.947L271.739 450.247L298.67 349.739L428.171 384.439L401.24 484.947Z" fill="#ED1B24" stroke="#ED1B24"/>
<path d="M318.975 407.328C326.661 409.387 334.588 404.811 336.647 397.127C338.707 389.438 334.131 381.511 326.444 379.452C318.758 377.392 310.831 381.968 308.772 389.655C306.712 397.341 311.289 405.268 318.975 407.328ZM324.891 385.25C329.379 386.452 332.052 391.085 330.85 395.571C329.648 400.056 325.017 402.732 320.529 401.529C316.041 400.327 313.367 395.696 314.569 391.211C315.771 386.725 320.403 384.047 324.891 385.25Z" fill="#ED1B24" stroke="#ED1B24"/>
<path d="M287.774 444.447L287.774 444.447L336.065 420.517L354.052 451.668C354.881 453.105 356.714 453.596 358.151 452.766C359.588 451.936 360.079 450.104 359.249 448.667L350.986 434.355L378.852 416.535L399.107 448.343L399.107 448.343C399.998 449.741 401.854 450.151 403.252 449.261C404.649 448.371 405.063 446.515 404.169 445.116L382.298 410.772L382.298 410.771C381.865 410.094 381.179 409.639 380.425 409.455L380.425 409.455L380.414 409.453C379.637 409.282 378.821 409.427 378.15 409.856L378.15 409.856L347.984 429.151L339.856 415.074L339.856 415.073C339.062 413.702 337.344 413.182 335.925 413.884L335.925 413.884L285.111 439.067C283.625 439.803 283.018 441.604 283.754 443.09L283.754 443.09C284.153 443.897 284.866 444.442 285.667 444.657C286.345 444.838 287.094 444.784 287.774 444.447Z" fill="#ED1B24" stroke="#ED1B24"/>
<path d="M237.386 231.82L147.307 300.035C146.199 300.874 145.979 302.452 146.82 303.562L200.417 374.339C201.258 375.449 202.837 375.665 203.945 374.826L294.024 306.611C295.132 305.772 295.352 304.194 294.511 303.084L240.914 232.307C240.073 231.197 238.494 230.981 237.386 231.82ZM288.977 304.116L202.912 369.292L152.354 302.529L238.419 237.354L288.977 304.116Z" fill="#ED1B24" stroke="#ED1B24"/>
<path d="M199.006 318.171C204.166 314.263 205.185 306.888 201.278 301.73C197.369 296.568 189.995 295.55 184.835 299.457C179.675 303.365 178.656 310.74 182.564 315.9C186.471 321.06 193.846 322.078 199.006 318.171ZM187.875 303.472C190.82 301.241 195.033 301.824 197.263 304.768C199.492 307.712 198.911 311.926 195.966 314.156C193.02 316.387 188.808 315.805 186.579 312.861C184.35 309.917 184.929 305.702 187.875 303.472Z" fill="#ED1B24" stroke="#ED1B24"/>
<path d="M207.233 356.363L207.234 356.363L215.886 313.849L244.54 317.805C245.919 317.996 247.188 317.035 247.379 315.656C247.569 314.277 246.608 313.008 245.229 312.818L232.115 311.006L234.546 284.625L264.736 287.466L264.736 287.466C266.12 287.596 267.348 286.577 267.478 285.194C267.608 283.81 266.592 282.58 265.205 282.452L232.504 279.375L232.503 279.375C231.831 279.313 231.177 279.534 230.669 279.937L230.669 279.937L230.66 279.944C230.146 280.371 229.823 280.985 229.761 281.651L229.761 281.651L227.122 310.315L214.233 308.535L214.233 308.535C212.916 308.355 211.687 309.225 211.421 310.526L211.421 310.526L202.299 355.356C202.021 356.72 202.902 358.049 204.264 358.327L204.264 358.327C205.004 358.478 205.732 358.286 206.287 357.866C206.757 357.511 207.106 356.987 207.233 356.363Z" fill="#ED1B24" stroke="#ED1B24"/>
<path d="M93.2578 165.258L69.9372 243.693C69.6287 244.73 70.2186 245.823 71.2581 246.132L132.886 264.455C133.925 264.764 135.016 264.172 135.324 263.134L158.645 184.699C158.953 183.662 158.364 182.57 157.324 182.26L95.6966 163.937C94.6571 163.628 93.5663 164.221 93.2578 165.258ZM154.326 185.461L132.124 260.136L74.2559 242.931L96.4586 168.256L154.326 185.461Z" fill="#ED1B24" stroke="#ED1B24"/>
<path d="M108.149 232.188C109.507 227.622 106.898 222.805 102.333 221.447C97.7656 220.089 92.9481 222.699 91.5905 227.265C90.2329 231.831 92.8422 236.648 97.4082 238.006C101.974 239.363 106.792 236.754 108.149 232.188ZM95.3503 228.383C96.0911 225.891 98.7232 224.466 101.214 225.207C103.704 225.947 105.13 228.578 104.389 231.07C103.649 233.562 101.018 234.987 98.5275 234.246C96.0369 233.506 94.6095 230.874 95.3503 228.383Z" fill="#ED1B24" stroke="#ED1B24"/>
<path d="M129.32 250.852L129.32 250.852L116.194 222.448L134.5 212.532C135.453 212.016 135.806 210.827 135.29 209.874C134.774 208.921 133.585 208.567 132.632 209.084L124.317 213.587L114.564 197.38L133.282 186.164L133.282 186.164C134.211 185.607 134.512 184.401 133.955 183.473C133.399 182.544 132.194 182.241 131.264 182.8L110.861 195.026L110.861 195.026L110.86 195.027C110.408 195.298 110.1 195.738 109.968 196.223L109.968 196.223L109.966 196.234C109.84 196.738 109.92 197.273 110.189 197.719L110.189 197.72L120.865 215.456L112.706 219.875L112.706 219.875C111.797 220.369 111.426 221.482 111.859 222.422L111.859 222.422L125.758 252.496C125.758 252.496 125.758 252.496 125.758 252.496C126.213 253.48 127.378 253.908 128.362 253.454L128.362 253.454C128.896 253.208 129.265 252.751 129.419 252.232C129.55 251.792 129.528 251.302 129.32 250.852Z" fill="#ED1B24" stroke="#ED1B24"/>
<path d="M88.7536 107.534L34.1067 81.0235C33.3586 80.6606 32.4079 80.8949 32.0299 81.6741L12.983 120.936C12.605 121.716 13.0095 122.607 13.7576 122.97L68.4045 149.48C69.1526 149.843 70.1033 149.609 70.4813 148.83L89.5282 109.568C89.9062 108.788 89.5017 107.897 88.7536 107.534ZM68.281 146.104L16.4855 120.977L34.2301 84.3995L86.0257 109.526L68.281 146.104Z" fill="#ED1B24" stroke="#ED1B24"/>
<path d="M38.7244 108.778C41.9308 110.334 45.7697 109.24 47.2372 106.215C48.7055 103.188 47.1889 99.4955 43.9823 97.9399C40.7758 96.3844 36.9369 97.4787 35.469 100.505C34.0012 103.53 35.5179 107.223 38.7244 108.778ZM42.6801 100.624C44.3907 101.454 45.0993 103.361 44.3862 104.83C43.6732 106.3 41.7373 106.924 40.0266 106.094C38.3158 105.264 37.607 103.358 38.32 101.889C39.0331 100.419 40.9696 99.7945 42.6801 100.624Z" fill="#ED1B24" stroke="#ED1B24"/>
<path d="M23.2915 120.584L23.2919 120.584L45.0097 115.587L50.4451 129.257C50.753 130.032 51.6331 130.459 52.432 130.221C53.2644 129.974 53.6871 129.103 53.3662 128.296L50.9493 122.216L63.3342 117.913L69.667 132.037L69.667 132.037C70.0075 132.796 70.9046 133.191 71.6922 132.919C72.5135 132.635 72.8919 131.742 72.5361 130.951L65.588 115.455L65.5876 115.454C65.4182 115.078 65.1062 114.794 64.7514 114.631L64.7514 114.631L64.742 114.626C64.3692 114.464 63.9448 114.441 63.5606 114.574L63.5605 114.574L49.8116 119.353L47.4132 113.32L47.4129 113.319C47.1174 112.579 46.2966 112.152 45.521 112.33L45.5205 112.33L22.4291 117.644C21.5854 117.838 21.0973 118.676 21.3664 119.503L21.3664 119.503C21.5084 119.94 21.8297 120.272 22.2097 120.457C22.5323 120.613 22.9142 120.671 23.2915 120.584Z" fill="#ED1B24" stroke="#ED1B24"/>
<path d="M33.011 1.21426L1.21425 33.011C0.736235 33.489 0.653944 34.2934 1.16565 34.8051L24.0107 57.6502C24.5225 58.1619 25.3269 58.0796 25.8049 57.6016L57.6016 25.8049C58.0796 25.3269 58.1619 24.5225 57.6502 24.0108L34.8051 1.16567C34.2934 0.653956 33.489 0.736251 33.011 1.21426ZM54.9348 24.9807L24.9807 54.9348L3.88112 33.8352L33.8352 3.88113L54.9348 24.9807Z" fill="#ED1B24" stroke="#ED1B24"/>
<path d="M21.9324 36.6954C23.8409 34.7869 24.0219 31.7536 22.2036 29.9352C20.3842 28.1159 17.351 28.2967 15.4424 30.2053C13.5339 32.1139 13.3529 35.1471 15.1718 36.966C16.9906 38.7848 20.0239 38.6039 21.9324 36.6954ZM17.1879 31.9508C18.1405 30.9983 19.5634 30.9804 20.3603 31.7774C21.1573 32.5744 21.1394 33.9973 20.1869 34.9498C19.2342 35.9025 17.8119 35.9206 17.015 35.1238C16.2179 34.3267 16.2355 32.9032 17.1879 31.9508Z" fill="#ED1B24" stroke="#ED1B24"/>
<path d="M26.4854 50.2757L26.4853 50.2761C26.4509 50.5928 26.3033 50.8727 26.0963 51.0796C25.8528 51.3231 25.5093 51.4836 25.1308 51.4764L25.1306 51.4764C24.4089 51.4623 23.8842 50.8499 23.9612 50.1386C23.9612 50.1385 23.9613 50.1384 23.9613 50.1383L25.8442 32.6971L25.8442 32.6966C25.9149 32.0478 26.464 31.5275 27.1179 31.4974L27.1186 31.4973L31.7962 31.2882L31.7881 20.6362L31.7881 20.6361C31.7879 20.3007 31.9207 19.9786 32.1455 19.7344L32.1525 19.7268L32.1525 19.7269C32.3715 19.4986 32.6744 19.3327 33.0135 19.3022L33.0144 19.3021L45.5386 18.1999C45.5387 18.1999 45.5388 18.1999 45.539 18.1999L45.5393 18.1998L45.5831 18.6979C46.0084 18.6599 46.3524 18.9732 46.3519 19.3963C46.3515 19.8194 46.0066 20.1934 45.5818 20.2308L26.4854 50.2757ZM26.4854 50.2757L28.2449 33.983L26.4854 50.2757Z" fill="#ED1B24" stroke="#ED1B24"/>
</svg>
