<svg width="390" height="695" viewBox="0 0 390 695" fill="none" xmlns="http://www.w3.org/2000/svg">
<path fill-rule="evenodd" clip-rule="evenodd" d="M27.4585 13.731H362.452C370.035 13.731 376.182 19.8786 376.182 27.462V78.2666H13.7293V27.462C13.7293 19.8786 19.8761 13.731 27.4585 13.731ZM0 91.9976V78.2666V27.462C0 12.2951 12.2936 0 27.4585 0H362.452C377.617 0 389.911 12.2951 389.911 27.462V78.2666V91.9976V578.074V591.805V667.326C389.911 682.493 377.617 694.788 362.452 694.788H27.4585C12.2936 694.788 0 682.493 0 667.326V591.805V578.074V380H13.7293V578.074H376.182V91.9976H13.7293V154H0V91.9976ZM13.7293 667.326V591.805H376.182V667.326C376.182 674.909 370.035 681.057 362.452 681.057H27.4585C19.8761 681.057 13.7293 674.909 13.7293 667.326ZM148.276 38.4468C144.485 38.4468 141.411 41.5205 141.411 45.3122C141.411 49.104 144.485 52.1777 148.276 52.1777H241.635C245.426 52.1777 248.5 49.104 248.5 45.3122C248.5 41.5205 245.426 38.4468 241.635 38.4468H148.276ZM194.955 648.102C202.538 648.102 208.685 641.955 208.685 634.372C208.685 626.788 202.538 620.641 194.955 620.641C187.373 620.641 181.226 626.788 181.226 634.372C181.226 641.955 187.373 648.102 194.955 648.102ZM194.955 661.833C210.12 661.833 222.414 649.538 222.414 634.372C222.414 619.205 210.12 606.909 194.955 606.909C179.79 606.909 167.497 619.205 167.497 634.372C167.497 649.538 179.79 661.833 194.955 661.833Z" fill="url(#paint0_linear)"/>
<defs>
<linearGradient id="paint0_linear" x1="317.252" y1="64.6871" x2="-180.697" y2="548.046" gradientUnits="userSpaceOnUse">
<stop stop-color="#A91D1C"/>
<stop offset="1" stop-color="#ED1B24"/>
</linearGradient>
</defs>
</svg>
